<?xml version="1.0" ?><!DOCTYPE svg  PUBLIC '-//W3C//DTD SVG 1.1//EN'  'http://www.w3.org/Graphics/SVG/1.1/DTD/svg11.dtd'><svg height="1486px" style="enable-background:new 0 0 1489.733 1486;" version="1.1" viewBox="0 0 1489.733 1486" width="1489.733px" xml:space="preserve" xmlns="http://www.w3.org/2000/svg" xmlns:xlink="http://www.w3.org/1999/xlink"><g id="shopping_bag_1"><g><path d="M1489.672,1327.532l-50.738-1174.909C1438.056,68.021,1368.594,0,1283.34,0H206.31    C121.084,0,51.645,68.025,50.768,152.626L0.062,1327.801C0.021,1328.75,0,1329.809,0,1330.757    C0,1416.301,69.798,1486,155.592,1486h1178.556c85.79,0,155.586-69.834,155.586-155.377    C1489.733,1329.674,1489.712,1328.482,1489.672,1327.532z M1334.147,1354H155.592c-12.819,0-22.93-9.909-23.431-22.337    L182.84,156.711c0.04-0.952,0.061-1.513,0.061-2.461c0-12.694,10.283-22.25,23.409-22.25h1077.03    c13.154,0,23.46,9.477,23.46,22.172c0,0.95,0.021,1.668,0.062,2.616l50.711,1174.995    C1357.07,1344.207,1346.962,1354,1334.147,1354z"/><path d="M965.5,256.603c-36.489,0-66.5,29.58-66.5,66.071v199.672c0,84.12-68.813,152.559-153.539,152.559    C660.779,674.905,592,606.466,592,522.346V322.674c0-36.491-29.511-66.071-66-66.071s-66,29.58-66,66.071v199.672    c0,156.983,128.416,284.7,285.961,284.7c157.588,0,286.039-127.717,286.039-284.7V322.674    C1032,286.183,1001.988,256.603,965.5,256.603z"/></g></g><g id="Layer_1"/></svg>